<?xml version="1.0" encoding="UTF-8"?>
<svg id="Disseny" xmlns="http://www.w3.org/2000/svg" version="1.1" viewBox="0 0 510.24 226.77">
  <defs>
    <style>
      .cls-1 {
        fill: #7ebc00;
      }

      .cls-1, .cls-2, .cls-3, .cls-4, .cls-5 {
        stroke-width: 0px;
      }

      .cls-2 {
        fill: #b2b2b2;
      }

      .cls-3 {
        fill: #575756;
      }

      .cls-4 {
        fill: #00acba;
      }

      .cls-5 {
        fill: #be4358;
      }
    </style>
  </defs>
  <path class="cls-2" d="M81.77,147.12c3.19,3.2,8.37,3.2,11.56,0l49.89-49.88c3.19-3.19,3.19-8.37,0-11.56l-49.89-49.88c-3.19-3.19-8.37-3.19-11.56,0l-49.89,49.88c-3.19,3.19-3.19,8.37,0,11.56l49.89,49.88ZM87.65,117.95c-3.43,2.29-3.43,4.95-6.32,4.65l-2.06-5.41c-1.75,1.75-1.52,2.82-3.43,5.18-4.19-2.82,2.44-7.46,4.11-10.05,1.98,3.2,1.75,3.35,2.9,5.1,1.52,2.28,4.87-7.46,6.24-5.48,2.06,9.14,5.64,7.01,11.8,4.11,4.42,3.28-14.93,12.49-13.25,1.9ZM82.26,79.85v-1.35c1.23.08,3.28.12,5.18.12s4.19-.04,5.42-.12v1.35l-2.57.79v21.82l2.57.79v1.34c-1.23-.08-3.28-.12-5.22-.12s-4.15.08-5.38.12v-1.34l2.57-.79v-21.86l-2.57-.75ZM105.49,78.46c5.97,0,9.21,2.01,9.21,5.97,0,3.16-2.29,4.74-5.34,5.61v.08c4.74,1.22,6.48,4.11,6.48,7.15,0,4.31-2.81,7.39-9.37,7.39-3.08,0-4.57-.2-7.3-.2-1.86,0-2.61.08-4.15.12v-1.35l2.57-.67v-22.06l-2.57-.67v-1.35c.28.04,2.13.12,4.15.12,3.44-.04,3.66-.16,6.31-.16ZM87.13,60.37c9.21,0,12.26,8.3,11.04,10.74-4.27-5.48-17.21-6.02-20.11-.31-3.96.92.99-10.43,9.06-10.43ZM56.58,78.51c1.13.04,2.98.12,4.72.12s3.85-.04,4.97-.12v1.34l-2.36.79v12.84c0,6.3,1.52,9.07,5.47,9.07,4.4,0,5.94-3.36,5.94-9.07v-12.88l-3.34-.75v-1.34c1.16.04,2.76.12,4.43.12s2.98-.04,4.14-.12v1.34l-3.2.75v13.27c0,7.09-3.19,11.03-8.96,11.03-6.72,0-9.5-4.22-9.5-11.03v-13.27l-2.33-.75v-1.34ZM110.2,97.08c0-3.48-1.82-5.97-5.73-5.97h-1.41v11.78h2.59c3.52,0,4.55-2.65,4.55-5.81ZM109.05,84.83c0-3.12-1.34-4.59-4.19-4.59h-1.8v9.17h.87c4.11,0,5.12-1.11,5.12-4.59ZM69.42,183.21v.42l1.28.24v8.59l-1.28.24v.42c.59-.03,1.25-.05,1.89-.05s1.28.02,1.89.05v-.42l-1.3-.24v-8.59l1.3-.24v-.42c-.6.03-1.27.04-1.89.04s-1.3-.01-1.89-.04ZM76.62,182.62h-.15c-.7.11-1.43.16-2.14.16v.42l1.15.24v9.01l-1.3.24v.42c1.19-.06,2.55-.06,3.73,0v-.42l-1.28-.24v-9.84ZM80.93,182.62h-.15c-.7.11-1.43.16-2.14.16v.42l1.15.24v9.01l-1.3.24v.42c1.19-.06,2.55-.06,3.73,0v-.42l-1.28-.24v-9.84ZM86.51,192.37c-1.6,0-2.48-.98-2.48-2.91v-.27h4.7l.21-.93c0-1.83-1.28-2.34-2.49-2.34-1.8,0-3.52,1.2-3.52,3.75,0,2.03,1.09,3.6,3.22,3.6,1.36,0,2.37-.75,2.81-1.13l-.15-.36c-.63.38-1.36.59-2.29.59ZM86.38,186.36c.76,0,1.37.54,1.37,1.58,0,.51-.05.63-.05.63l-3.59.24c.21-1.35,1.03-2.45,2.26-2.45ZM92.82,188.91c-.78-.27-1.65-.38-1.65-1.35,0-.75.5-1.2,1.36-1.2.8,0,1.1.29,1.1.29l.11,1.5.44.08.44-1.85c-.57-.28-1.33-.47-2.01-.47-1.48,0-2.43.82-2.43,2.03,0,1.28.89,1.59,2.01,2.03.81.32,1.72.45,1.72,1.43,0,.83-.51,1.43-1.52,1.43-.91,0-1.22-.36-1.22-.36l-.11-1.5-.44-.07-.44,1.92s.66.47,2.19.47c1.36,0,2.69-.83,2.69-2.25,0-1.35-1.16-1.73-2.23-2.1ZM104.96,187.61c1.1-.35,1.95-.95,1.95-2.13,0-1.5-1.16-2.28-3.32-2.28-1.01,0-1.75.06-2.55.06-.44,0-.88-.01-1.31-.04v.42l1.27.24v8.59l-1.27.24v.42c.71-.05,1.03-.05,1.75-.05.79,0,1.57.08,2.66.08,2.13,0,3.2-1.23,3.2-2.82,0-1.14-.62-2.24-2.37-2.72ZM102.2,183.79h1.25c1.68,0,2.18.66,2.18,1.83,0,1.28-.62,1.76-2.61,1.76h-.81v-3.59ZM103.74,192.53h-1.54v-4.56h1.1c1.98,0,2.76.99,2.76,2.28,0,1.19-.51,2.28-2.33,2.28ZM113.57,187.94c0-1.28-.63-2.03-1.8-2.03-1.28,0-2.52.69-3.14,1.41l.68,1.29.41-.11.11-1.55s.47-.45,1.19-.45c.88,0,1.37.63,1.37,1.83v1.55c-.8.07-1.51-.2-2.34-.2-1.01,0-1.63.74-1.63,1.67,0,1.13.63,1.91,1.77,1.91s1.89-.75,2.2-1.11l.17.96c.38-.02.76-.03,1.15-.03.32,0,.64.02.97.03v-.42l-1.1-.24v-4.52ZM112.39,191.78c-.18.16-.82.72-1.89.72-.72,0-.98-.48-.98-1.1,0-.5.2-1.13,1.01-1.13.3,0,.54.02,1.13.02.38,0,.62-.08.72-.11v1.59ZM117.95,182.62h-.15c-.7.11-1.43.16-2.14.16v.42l1.15.24v9.01l-1.3.24v.42c1.19-.06,2.55-.06,3.73,0v-.42l-1.28-.24v-9.84ZM123.53,192.37c-1.6,0-2.48-.98-2.48-2.91v-.27h4.7l.21-.93c0-1.83-1.28-2.34-2.49-2.34-1.8,0-3.52,1.2-3.52,3.75,0,2.03,1.09,3.6,3.22,3.6,1.36,0,2.37-.75,2.81-1.13l-.15-.36c-.63.38-1.36.59-2.29.59ZM123.4,186.36c.76,0,1.37.54,1.37,1.58,0,.51-.05.63-.05.63l-3.59.24c.21-1.35,1.03-2.45,2.26-2.45ZM132.21,187.94c0-1.28-.63-2.03-1.8-2.03-1.28,0-2.52.69-3.14,1.41l.68,1.29.41-.11.1-1.55s.47-.45,1.19-.45c.87,0,1.37.63,1.37,1.83v1.55c-.8.07-1.51-.2-2.34-.2-1.01,0-1.63.74-1.63,1.67,0,1.13.63,1.91,1.77,1.91s1.89-.75,2.2-1.11l.17.96c.38-.02.75-.03,1.15-.03.32,0,.63.02.97.03v-.42l-1.1-.24v-4.52ZM131.04,191.78c-.18.16-.81.72-1.89.72-.73,0-.98-.48-.98-1.1,0-.5.2-1.13,1.01-1.13.3,0,.54.02,1.13.02.38,0,.62-.08.72-.11v1.59ZM136.62,187.29h-.03v-1.38h-.15c-.7.1-1.43.16-2.14.16v.42l1.15.24v5.72l-1.3.24v.42c1.19-.06,2.85-.06,4.03,0v-.42l-1.58-.24v-4.61s.65-1.22,1.87-1.22l.18,1.44.45.04.57-1.91s-.27-.3-.95-.3c-1.39,0-2.08,1.4-2.1,1.38ZM143.25,188.91c-.79-.27-1.65-.38-1.65-1.35,0-.75.5-1.2,1.36-1.2.8,0,1.1.29,1.1.29l.11,1.5.44.08.44-1.85c-.57-.28-1.33-.47-2.01-.47-1.48,0-2.43.82-2.43,2.03,0,1.28.89,1.59,2.01,2.03.81.32,1.72.45,1.72,1.43,0,.83-.51,1.43-1.52,1.43-.91,0-1.22-.36-1.22-.36l-.11-1.5-.44-.07-.44,1.92s.66.47,2.19.47c1.36,0,2.69-.83,2.69-2.25,0-1.35-1.16-1.73-2.23-2.1ZM36.02,182.62h-.14c-.71.11-1.44.16-2.16.16v.42l1.15.24v2.91c-.42-.3-1.12-.45-1.65-.45-1.86,0-3.65,1.28-3.65,3.68,0,2.25,1,3.68,2.85,3.68,1.51,0,2.38-1.05,2.38-1.05h.06v1.05h.15c.81-.12,1.57-.23,2.43-.24v-.42l-1.43-.19v-9.79ZM34.87,191.74c-.42.39-1.21.78-1.93.78-1.21,0-2.14-.98-2.14-2.93s.79-3.23,2.36-3.23c.72,0,1.72.45,1.72,2.18v3.2ZM41.76,192.37c-1.6,0-2.48-.98-2.48-2.91l.02-.27h4.68l.21-.93c0-1.83-1.28-2.34-2.49-2.34-1.8,0-3.52,1.2-3.52,3.75,0,2.03,1.09,3.6,3.22,3.6,1.36,0,2.37-.75,2.81-1.13l-.15-.36c-.63.38-1.36.59-2.3.59ZM41.62,186.36c.75,0,1.37.54,1.37,1.58,0,.51-.05.63-.05.63l-3.59.24c.21-1.35,1.03-2.45,2.26-2.45ZM51.12,182.62h-.15c-.69.11-1.43.16-2.14.16v.42l1.15.24v9.01l-1.3.24v.42c1.19-.06,2.55-.06,3.73,0v-.42l-1.28-.24v-9.84ZM56.7,192.37c-1.6,0-2.48-.98-2.48-2.91l.02-.27h4.68l.21-.93c0-1.83-1.28-2.34-2.49-2.34-1.8,0-3.52,1.2-3.52,3.75,0,2.03,1.09,3.6,3.22,3.6,1.36,0,2.37-.75,2.81-1.13l-.15-.36c-.63.38-1.36.59-2.29.59ZM56.57,186.36c.76,0,1.37.54,1.37,1.58,0,.51-.05.63-.05.63l-3.59.24c.21-1.35,1.03-2.45,2.26-2.45ZM63.01,188.91c-.79-.27-1.65-.38-1.65-1.35,0-.75.5-1.2,1.36-1.2.8,0,1.1.29,1.1.29l.11,1.5.44.08.44-1.85c-.57-.28-1.33-.47-2.01-.47-1.48,0-2.43.82-2.43,2.03,0,1.28.89,1.59,2.01,2.03.82.32,1.72.45,1.72,1.43,0,.83-.51,1.43-1.52,1.43-.91,0-1.22-.36-1.22-.36l-.11-1.5-.44-.07-.44,1.92s.66.47,2.19.47c1.36,0,2.69-.83,2.69-2.25,0-1.35-1.16-1.73-2.23-2.1ZM29.58,161.13v10.75c0,5.07,2.72,6.78,7.17,6.78s7.17-1.76,7.17-6.78v-11.21l-4.14.67v10.38c0,2.48-1.01,3.5-2.95,3.5-2.1,0-3.13-.98-3.13-3.5v-10.59h-4.12ZM53.41,178.21h4.22v-8.67c0-3.05-2.07-4.04-4.19-4.04s-3.6,1.4-3.6,1.42l-.65-1.42-3.31.67v12.04h4.22v-8.41s.85-1.29,1.99-1.29c.93,0,1.32.57,1.32,1.79v7.92ZM64.16,165.5l-4.22.67v12.04h4.22v-12.71ZM60.01,162.24c0,1.19.75,2.05,2.15,2.05s2.15-.85,2.15-2.05-.72-2.05-2.15-2.05-2.15.85-2.15,2.05ZM74.13,165.86l-2.38,7.74-2.56-8.1-3.94.67,4.07,12.04h4.17l4.69-12.35h-4.04ZM89.48,171.35c-.08-3.26-1.35-5.85-5.36-5.85-3.68,0-6.37,2.1-6.37,6.55,0,4.19,1.81,6.58,6.27,6.58,3.16,0,5.46-1.19,5.46-1.19l-1.11-2.74s-1.6.93-3.7.93c-1.86,0-2.67-1.16-2.67-2.85h7.07l.42-1.42ZM82.07,170.73c.08-1.71.8-2.59,1.92-2.59s1.6.8,1.63,2.59h-3.55ZM97.99,165.5c-1.37,0-2.64.98-2.95,1.84l-.1-1.84-3.88.67v12.04h4.22v-8.29s.7-1.24,2.28-1.24c.62,0,1.11.23,1.11.23l1.01-3.03s-.62-.39-1.68-.39ZM105.5,170.81c-1.14-.47-1.97-.83-1.97-1.53,0-.65.49-1.09,1.45-1.09,1.84,0,3.18.96,3.21.98l.99-2.77s-1.45-.91-4.43-.91c-2.82,0-5.15,1.14-5.15,3.78,0,3.94,5.54,3.81,5.54,5.54,0,.67-.49,1.11-1.45,1.11-1.66,0-3.29-.98-3.55-1.17l-.93,2.77c.26.16,1.99,1.09,4.94,1.09s4.89-1.47,4.89-3.78c0-2.49-1.22-3.13-3.55-4.04ZM112.44,160.19c-1.4,0-2.15.85-2.15,2.05s.75,2.05,2.15,2.05,2.15-.85,2.15-2.05-.72-2.05-2.15-2.05ZM110.21,178.21h4.22v-12.71l-4.22.67v12.04ZM117.28,175.44c0,2.33,1.58,3.19,3.26,3.19,2.69,0,4.07-1.35,4.07-1.35l-1.03-2.3c-.39.28-.96.54-1.4.54-.57,0-.83-.26-.83-1.17v-6.21h2.85v-2.28h-2.85v-3.52l-3.62.41-.44,3.11-1.37.26-.47,2.02h1.84v7.3ZM124.95,175.42c0,1.99,1.32,3.21,3.5,3.21,2.46,0,3.65-1.58,3.75-1.68l.47,1.27h3.26v-8.39c0-2.8-1.89-4.32-5.15-4.32s-5.33,1.27-5.44,1.37l1.06,2.56s1.63-1.01,3.34-1.01c1.19,0,1.99.34,1.99,1.45v1.03c-6.47,0-6.78,3.26-6.78,4.5ZM131.73,175.11s-.72,1.14-1.84,1.14c-.78,0-1.06-.49-1.06-1.19,0-.65.26-2.02,2.9-2.05v2.1ZM143.1,175.52c-.57,0-.83-.26-.83-1.17v-6.21h2.85v-2.28h-2.85v-3.52l-3.62.41-.44,3.11-1.37.26-.47,2.02h1.84v7.3c0,2.33,1.58,3.19,3.26,3.19,2.69,0,4.07-1.35,4.07-1.35l-1.03-2.3c-.39.28-.96.54-1.4.54Z"/>
  <rect class="cls-2" x="167.37" y="33.4" width="1.41" height="159.87"/>
  <g>
    <path class="cls-3" d="M210.68,171.41l-.76,1.53-.16-.09c-.11-.08-.28-.17-.52-.28-.24-.11-.5-.22-.79-.32-.29-.11-.64-.2-1.05-.28s-.83-.12-1.25-.12c-1.56,0-2.76.52-3.61,1.56-.85,1.04-1.27,2.53-1.27,4.45,0,4.23,1.72,6.34,5.16,6.34.2,0,.41-.01.61-.03.21-.02.41-.05.59-.08.19-.03.37-.07.56-.12.18-.05.36-.09.52-.14.16-.05.32-.09.46-.14.15-.05.27-.09.38-.14.11-.05.2-.08.29-.12s.14-.06.17-.09l.07-.02.56,1.62c-.12.08-.31.17-.54.29-.24.12-.75.27-1.53.45-.78.18-1.58.28-2.4.28-4.71,0-7.06-2.67-7.06-8.01,0-2.45.58-4.38,1.75-5.77s2.92-2.09,5.27-2.09c.86,0,1.68.11,2.44.34.76.22,1.31.44,1.63.66l.49.32Z"/>
    <path class="cls-3" d="M220.59,180.11h-6.67c0,2.85,1.08,4.28,3.24,4.28.49,0,.98-.07,1.46-.22.48-.15.84-.29,1.08-.43.24-.14.36-.22.36-.23l.63,1.48c-.11.08-.26.17-.46.28-.2.11-.63.25-1.28.43-.66.18-1.33.27-2.03.27-1.6,0-2.84-.48-3.71-1.45-.87-.96-1.31-2.4-1.31-4.29s.46-3.22,1.37-4.23c.91-1.02,2.11-1.53,3.61-1.53,1.33,0,2.32.42,2.99,1.27.66.85,1,1.98,1.02,3.4l-.28.97ZM216.79,175.93c-.77,0-1.4.25-1.9.76-.49.51-.8,1.23-.93,2.15h5c-.03-1.94-.76-2.92-2.18-2.92Z"/>
    <path class="cls-3" d="M232.21,185.67h-2.01v-7.01c0-.89-.17-1.55-.51-1.97-.34-.42-.86-.62-1.57-.62-.49,0-.97.13-1.43.39-.46.26-.81.51-1.03.75-.22.24-.34.37-.34.41v8.05h-2.04v-10.76l1.62-.44.35,1.5s.13-.18.39-.42c.26-.23.68-.47,1.25-.72.57-.25,1.18-.37,1.83-.37,1.03,0,1.87.29,2.52.88.65.59.97,1.54.97,2.87v7.45Z"/>
    <path class="cls-3" d="M239.96,183.89l.6,1.2c-.63.59-1.49.88-2.57.88-1.53,0-2.29-.82-2.29-2.45v-7.27h-1.71l.28-1.25,1.43-.23.25-2.57,1.74-.21v2.78h2.48v1.48h-2.48v7.1c0,.69.29,1.04.86,1.04.52,0,.99-.17,1.41-.51Z"/>
    <path class="cls-3" d="M248.66,174.72l-.58,1.62c-.22-.09-.47-.14-.76-.14-.43,0-.84.12-1.24.36-.39.24-.68.48-.87.73l-.28.35v8.03h-2.04v-10.76l1.78-.44.18,1.64c.2-.34.55-.7,1.04-1.08.49-.38,1.05-.57,1.67-.57.22,0,.42.02.6.07.19.05.32.09.39.12l.09.07Z"/>
    <path class="cls-3" d="M258.22,180.11h-6.67c0,2.85,1.08,4.28,3.24,4.28.49,0,.98-.07,1.46-.22.48-.15.84-.29,1.08-.43.24-.14.36-.22.36-.23l.63,1.48c-.11.08-.26.17-.46.28-.2.11-.63.25-1.28.43-.66.18-1.33.27-2.03.27-1.6,0-2.84-.48-3.71-1.45-.87-.96-1.31-2.4-1.31-4.29s.46-3.22,1.37-4.23c.91-1.02,2.11-1.53,3.61-1.53,1.33,0,2.32.42,2.99,1.27.66.85,1,1.98,1.02,3.4l-.28.97ZM254.42,175.93c-.77,0-1.4.25-1.9.76-.49.51-.8,1.23-.93,2.15h5c-.03-1.94-.76-2.92-2.18-2.92Z"/>
    <path class="cls-3" d="M276.55,181.64c0,1.22-.37,2.2-1.1,2.93-.73.73-1.72,1.1-2.97,1.1h-5.48v-15.27h4.88c1.2,0,2.2.31,3,.91.79.61,1.19,1.54,1.19,2.79,0,.88-.24,1.65-.71,2.31s-1.14,1.06-2,1.2c2.13.25,3.19,1.59,3.19,4.03ZM273.87,174.4c0-1.6-.83-2.41-2.5-2.41h-2.34v4.95h2.2c1.76,0,2.64-.85,2.64-2.55ZM274.35,181.41c0-.91-.27-1.63-.8-2.15-.53-.52-1.26-.79-2.19-.79h-2.34v5.6h2.34c.96,0,1.69-.2,2.21-.59s.77-1.08.77-2.07Z"/>
    <path class="cls-3" d="M286.55,185.67h-1.57l-.28-1.25c-.94,1.03-2.06,1.55-3.36,1.55-.89,0-1.6-.24-2.12-.73-.52-.49-.78-1.16-.78-2.02,0-.42.07-.81.21-1.19s.4-.79.79-1.23c.39-.44,1.01-.79,1.87-1.06.86-.27,1.93-.41,3.19-.43v-1.53c0-1.16-.67-1.74-2.01-1.74-.49,0-.99.08-1.48.24-.49.16-.87.33-1.13.5l-.37.23-.58-1.41c1.13-.76,2.43-1.13,3.91-1.13,2.47,0,3.7,1.1,3.7,3.31v7.89ZM284.51,183.19v-2.71c-1.54.05-2.62.33-3.22.84-.6.52-.9,1.11-.9,1.77,0,1.02.5,1.53,1.5,1.53.43,0,.87-.12,1.31-.36.44-.24.77-.48.98-.73l.32-.35Z"/>
    <path class="cls-3" d="M292.1,185.67h-2.04v-15.74l2.04-.44v16.18Z"/>
    <path class="cls-3" d="M303.26,180.11h-6.67c0,2.85,1.08,4.28,3.24,4.28.49,0,.98-.07,1.46-.22.48-.15.84-.29,1.08-.43.24-.14.36-.22.36-.23l.62,1.48c-.11.08-.26.17-.46.28-.2.11-.63.25-1.28.43-.66.18-1.33.27-2.02.27-1.6,0-2.84-.48-3.71-1.45-.87-.96-1.31-2.4-1.31-4.29s.46-3.22,1.37-4.23c.91-1.02,2.11-1.53,3.61-1.53,1.33,0,2.32.42,2.99,1.27.66.85,1,1.98,1.02,3.4l-.28.97ZM299.46,175.93c-.77,0-1.4.25-1.9.76-.49.51-.8,1.23-.93,2.15h5c-.03-1.94-.76-2.92-2.18-2.92Z"/>
    <path class="cls-3" d="M313.23,185.67h-1.57l-.28-1.25c-.94,1.03-2.06,1.55-3.36,1.55-.89,0-1.6-.24-2.12-.73-.52-.49-.78-1.16-.78-2.02,0-.42.07-.81.21-1.19s.4-.79.79-1.23c.39-.44,1.01-.79,1.87-1.06.86-.27,1.93-.41,3.19-.43v-1.53c0-1.16-.67-1.74-2.01-1.74-.49,0-.99.08-1.48.24-.49.16-.87.33-1.13.5l-.37.23-.58-1.41c1.13-.76,2.43-1.13,3.91-1.13,2.47,0,3.7,1.1,3.7,3.31v7.89ZM311.19,183.19v-2.71c-1.54.05-2.62.33-3.22.84-.6.52-.9,1.11-.9,1.77,0,1.02.5,1.53,1.5,1.53.43,0,.87-.12,1.31-.36.44-.24.77-.48.98-.73l.32-.35Z"/>
    <path class="cls-3" d="M322.49,174.72l-.58,1.62c-.22-.09-.47-.14-.76-.14-.43,0-.85.12-1.24.36-.39.24-.68.48-.87.73l-.28.35v8.03h-2.04v-10.76l1.78-.44.19,1.64c.2-.34.55-.7,1.04-1.08s1.05-.57,1.67-.57c.22,0,.42.02.6.07s.32.09.39.12l.09.07Z"/>
    <path class="cls-3" d="M338.41,185.67h-1.6l-.25-1.25c-.89,1.03-1.94,1.55-3.15,1.55-1.5,0-2.63-.51-3.39-1.53-.76-1.02-1.15-2.51-1.15-4.47,0-1.71.4-3.06,1.19-4.04.8-.98,1.88-1.47,3.25-1.47.23,0,.46.02.67.05.22.03.41.07.59.13.18.05.35.12.52.18.17.07.31.14.43.21.12.07.23.15.35.23.12.09.2.15.27.2s.12.1.18.16l.07.07v-5.76l2.01-.44v16.18ZM333.87,184.33c.89,0,1.74-.49,2.52-1.48v-5.35l-.07-.07-.09-.14s-.08-.1-.15-.17c-.07-.07-.14-.13-.2-.2s-.14-.13-.23-.21-.19-.15-.29-.21-.21-.12-.33-.17c-.12-.05-.25-.1-.37-.15s-.26-.08-.4-.1c-.15-.02-.3-.03-.45-.03-.93,0-1.63.37-2.12,1.1s-.73,1.72-.73,2.97c0,2.81.97,4.21,2.92,4.21Z"/>
    <path class="cls-3" d="M349.61,180.11h-6.67c0,2.85,1.08,4.28,3.24,4.28.49,0,.98-.07,1.46-.22.48-.15.84-.29,1.08-.43.24-.14.36-.22.36-.23l.62,1.48c-.11.08-.26.17-.46.28-.2.11-.63.25-1.28.43-.66.18-1.33.27-2.02.27-1.6,0-2.84-.48-3.71-1.45-.87-.96-1.31-2.4-1.31-4.29s.46-3.22,1.37-4.23c.91-1.02,2.11-1.53,3.61-1.53,1.33,0,2.32.42,2.99,1.27.66.85,1,1.98,1.02,3.4l-.28.97ZM345.82,175.93c-.77,0-1.4.25-1.9.76-.49.51-.8,1.23-.93,2.15h5c-.03-1.94-.76-2.92-2.18-2.92Z"/>
    <path class="cls-3" d="M367.94,181.64c0,1.22-.37,2.2-1.1,2.93-.73.73-1.72,1.1-2.97,1.1h-5.48v-15.27h4.88c1.2,0,2.2.31,3,.91.79.61,1.19,1.54,1.19,2.79,0,.88-.24,1.65-.71,2.31s-1.14,1.06-2,1.2c2.13.25,3.19,1.59,3.19,4.03ZM365.26,174.4c0-1.6-.83-2.41-2.5-2.41h-2.34v4.95h2.2c1.76,0,2.64-.85,2.64-2.55ZM365.74,181.41c0-.91-.27-1.63-.8-2.15-.53-.52-1.26-.79-2.19-.79h-2.34v5.6h2.34c.96,0,1.69-.2,2.21-.59.52-.39.77-1.08.77-2.07Z"/>
    <path class="cls-3" d="M373.05,171.48c0,.37-.11.66-.34.88-.22.22-.54.32-.94.32s-.69-.11-.93-.32c-.23-.22-.35-.51-.35-.88s.12-.64.35-.87c.23-.22.54-.34.93-.34s.71.1.94.31c.22.21.34.51.34.89ZM372.71,185.67h-2.04v-10.76l2.04-.44v11.2Z"/>
    <path class="cls-3" d="M385.48,180.23c0,1.84-.45,3.25-1.35,4.25-.9,1-2.16,1.49-3.78,1.49s-2.9-.5-3.81-1.49-1.35-2.41-1.35-4.25.46-3.24,1.37-4.25c.91-1.01,2.18-1.52,3.8-1.52s2.88.51,3.78,1.52c.9,1.01,1.35,2.43,1.35,4.25ZM377.27,180.23c0,2.79,1.03,4.19,3.08,4.19s3.06-1.4,3.06-4.19-1.02-4.19-3.06-4.19-3.08,1.4-3.08,4.19Z"/>
    <path class="cls-3" d="M396.62,185.67h-1.6l-.25-1.25c-.89,1.03-1.94,1.55-3.15,1.55-1.5,0-2.63-.51-3.39-1.53-.76-1.02-1.15-2.51-1.15-4.47,0-1.71.4-3.06,1.19-4.04.8-.98,1.88-1.47,3.25-1.47.23,0,.46.02.67.05.22.03.41.07.59.13.18.05.35.12.52.18.17.07.31.14.43.21.12.07.23.15.35.23.12.09.2.15.27.2s.12.1.18.16l.07.07v-5.76l2.01-.44v16.18ZM392.08,184.33c.89,0,1.74-.49,2.52-1.48v-5.35l-.07-.07-.09-.14s-.08-.1-.15-.17c-.07-.07-.14-.13-.2-.2s-.14-.13-.23-.21-.19-.15-.29-.21-.21-.12-.33-.17c-.12-.05-.25-.1-.37-.15s-.26-.08-.4-.1c-.15-.02-.3-.03-.45-.03-.93,0-1.63.37-2.12,1.1s-.73,1.72-.73,2.97c0,2.81.97,4.21,2.92,4.21Z"/>
    <path class="cls-3" d="M402.38,171.48c0,.37-.11.66-.34.88-.22.22-.54.32-.94.32s-.69-.11-.93-.32c-.23-.22-.35-.51-.35-.88s.12-.64.35-.87c.23-.22.54-.34.93-.34s.71.1.94.31c.22.21.34.51.34.89ZM402.03,185.67h-2.04v-10.76l2.04-.44v11.2Z"/>
    <path class="cls-3" d="M413.74,174.77l-3.91,10.9h-2.11l-3.63-10.76,1.94-.44,2.89,9.05,2.78-8.75h2.04Z"/>
    <path class="cls-3" d="M423.58,180.11h-6.67c0,2.85,1.08,4.28,3.24,4.28.49,0,.98-.07,1.46-.22.48-.15.84-.29,1.08-.43.24-.14.36-.22.36-.23l.62,1.48c-.11.08-.26.17-.46.28-.2.11-.63.25-1.28.43-.66.18-1.33.27-2.02.27-1.6,0-2.84-.48-3.71-1.45-.87-.96-1.31-2.4-1.31-4.29s.46-3.22,1.37-4.23c.91-1.02,2.11-1.53,3.61-1.53,1.33,0,2.32.42,2.99,1.27.66.85,1,1.98,1.02,3.4l-.28.97ZM419.78,175.93c-.77,0-1.4.25-1.9.76-.49.51-.8,1.23-.93,2.15h5c-.03-1.94-.76-2.92-2.18-2.92Z"/>
    <path class="cls-3" d="M432.02,174.72l-.58,1.62c-.22-.09-.47-.14-.76-.14-.43,0-.85.12-1.24.36-.39.24-.68.48-.87.73l-.28.35v8.03h-2.04v-10.76l1.78-.44.19,1.64c.2-.34.55-.7,1.04-1.08s1.05-.57,1.67-.57c.22,0,.42.02.6.07s.32.09.39.12l.09.07Z"/>
    <path class="cls-3" d="M440.19,182.87c0,.99-.34,1.75-1.02,2.29-.68.54-1.57.81-2.69.81-1.37,0-2.55-.29-3.52-.88l.56-1.46c.86.59,1.8.88,2.8.88.59,0,1.07-.15,1.46-.45.39-.3.58-.7.58-1.19,0-.4-.17-.75-.52-1.05s-.77-.57-1.27-.81-1-.5-1.5-.78c-.5-.28-.93-.65-1.27-1.12s-.52-1.03-.52-1.68c0-.97.34-1.71,1.03-2.21.69-.5,1.61-.75,2.77-.75.59,0,1.14.06,1.65.18s.88.25,1.1.37l.35.21-.6,1.44-.07-.02s-.11-.07-.18-.12-.17-.09-.28-.14c-.11-.05-.24-.1-.38-.15-.15-.05-.3-.1-.45-.15-.16-.05-.33-.08-.53-.1-.2-.02-.4-.03-.6-.03-.56,0-1.01.13-1.37.38-.36.25-.53.61-.53,1.05,0,.25.04.46.13.64.09.18.26.36.52.55.26.19.47.34.64.43.16.09.48.26.96.51,1.06.54,1.79,1.02,2.19,1.45.39.42.59,1.06.59,1.91Z"/>
    <path class="cls-3" d="M445.47,171.48c0,.37-.11.66-.34.88-.22.22-.54.32-.94.32s-.69-.11-.93-.32c-.23-.22-.35-.51-.35-.88s.12-.64.35-.87c.23-.22.54-.34.93-.34s.71.1.94.31c.22.21.34.51.34.89ZM445.12,185.67h-2.04v-10.76l2.04-.44v11.2Z"/>
    <path class="cls-3" d="M452.99,183.89l.6,1.2c-.63.59-1.49.88-2.57.88-1.53,0-2.29-.82-2.29-2.45v-7.27h-1.71l.28-1.25,1.44-.23.25-2.57,1.74-.21v2.78h2.48v1.48h-2.48v7.1c0,.69.29,1.04.86,1.04.52,0,1-.17,1.41-.51Z"/>
    <path class="cls-3" d="M463.22,185.67h-1.57l-.28-1.25c-.94,1.03-2.06,1.55-3.36,1.55-.89,0-1.6-.24-2.12-.73-.52-.49-.78-1.16-.78-2.02,0-.42.07-.81.21-1.19s.4-.79.79-1.23c.39-.44,1.01-.79,1.87-1.06.86-.27,1.93-.41,3.19-.43v-1.53c0-1.16-.67-1.74-2.01-1.74-.49,0-.99.08-1.48.24-.49.16-.87.33-1.13.5l-.37.23-.58-1.41c1.13-.76,2.43-1.13,3.91-1.13,2.47,0,3.7,1.1,3.7,3.31v7.89ZM461.18,183.19v-2.71c-1.54.05-2.62.33-3.22.84-.6.52-.9,1.11-.9,1.77,0,1.02.5,1.53,1.5,1.53.43,0,.87-.12,1.31-.36.44-.24.77-.48.98-.73l.32-.35Z"/>
    <path class="cls-3" d="M471.25,183.89l.6,1.2c-.63.59-1.49.88-2.57.88-1.53,0-2.29-.82-2.29-2.45v-7.27h-1.71l.28-1.25,1.44-.23.25-2.57,1.74-.21v2.78h2.48v1.48h-2.48v7.1c0,.69.29,1.04.86,1.04.52,0,1-.17,1.41-.51Z"/>
  </g>
  <g>
    <path class="cls-1" d="M473.54,105.22c-2.22-1.89-4.7-3.41-7.44-4.57-2.74-1.16-5.52-2.03-8.32-2.61v-.58c3.62-1.06,9.77-2.61,12.81-4.64,3.03-2.03,5.49-4.67,7.35-7.91,1.87-3.24,2.8-7.18,2.8-11.82,0-5.13-1.49-9.41-4.46-12.84-2.98-3.43-6.98-6.02-11.99-7.76-5.02-1.74-13.33-2.61-19.29-2.61h-57.1v99.52h57.28c6.19,0,11.96-1.18,17.33-3.55,5.37-2.37,9.74-5.71,13.13-10.01,3.38-4.3,5.08-9.31,5.08-15.02,0-3.38-.64-6.36-1.93-8.92-1.29-2.56-3.04-4.79-5.25-6.67ZM466.67,70.34h0c0,12.78-10.36,23.14-23.14,23.14,0-12.78,10.36-23.14,23.14-23.14ZM421.15,105.8c0,12.78-10.36,23.14-23.14,23.14,0-12.78,10.36-23.14,23.14-23.14h0ZM421.15,93.48c-12.78,0-23.14-10.36-23.14-23.14h0c12.78,0,23.14,10.36,23.14,23.14h0ZM432.34,138.52c-9.04-9.04-9.04-23.69,0-32.73,9.04,9.04,9.04,23.69,0,32.73ZM432.34,93.48c-9.04-9.04-9.04-23.69,0-32.73,9.04,9.04,9.04,23.69,0,32.73ZM443.53,105.8h0c12.78,0,23.14,10.36,23.14,23.14-12.78,0-23.14-10.36-23.14-23.14Z"/>
    <path class="cls-4" d="M375.48,105.22c-2.22-1.89-4.7-3.41-7.44-4.57-2.74-1.16-5.52-2.03-8.32-2.61v-.58c3.62-1.06,9.77-2.61,12.81-4.64,3.03-2.03,5.49-4.67,7.35-7.91,1.87-3.24,2.8-7.18,2.8-11.82,0-5.13-1.49-9.41-4.46-12.84-2.98-3.43-7.68-6.02-12.7-7.76-5.02-1.74-12.63-2.61-18.58-2.61h-57.1v99.52h57.28c6.19,0,11.96-1.18,17.33-3.55,5.37-2.37,9.74-5.71,13.13-10.01,3.38-4.3,5.08-9.31,5.08-15.02,0-3.38-.64-6.36-1.93-8.92-1.29-2.56-3.04-4.79-5.25-6.67ZM307.57,68.92l6.61,5.4,6.61,5.41s9.95-9.54,22.23-9.54,22.23,9.54,22.23,9.54c0,0-9.95,9.54-22.23,9.54s-22.22-9.54-22.23-9.54l-6.61,5.41-6.61,5.4v-21.62ZM343.01,129.08c-12.27,0-22.22-9.54-22.23-9.54l-6.61,5.4-6.61,5.4v-21.62l6.61,5.41,6.61,5.4s9.95-9.54,22.23-9.54,22.23,9.54,22.23,9.54c0,0-9.95,9.54-22.23,9.54Z"/>
    <path class="cls-5" d="M283,49.89h-42.33c-.21,0-.43,0-.64,0-.22,0-.43.01-.64.02h-.76v.02c-26.86.75-48.41,22.75-48.4,49.79,0,27.04,21.56,49.03,48.42,49.77v.02h.76c.21,0,.43.02.64.02.22,0,.43-.01.64-.02h42.33s-.02-99.61-.02-99.61ZM232.56,122.89c-5.98,6.25-16,5.96-16,5.96,0,0-.32-10.43,5.67-16.68,5.98-6.25,16-5.96,16-5.96,0,0,.32,10.43-5.67,16.68ZM238.18,101.87s-13.52.88-21.21-6.57c-7.68-7.45-6.61-20.41-6.61-20.41,0,0,13.52-.88,21.21,6.57,7.68,7.45,6.61,20.41,6.61,20.41ZM264.82,128.84s-10.02.3-16-5.96c-5.98-6.25-5.67-16.68-5.67-16.68,0,0,10.02-.3,16,5.96,5.98,6.25,5.67,16.68,5.67,16.68ZM264.4,95.3c-7.68,7.45-21.21,6.57-21.21,6.57,0,0-1.07-12.96,6.61-20.41,7.68-7.45,21.21-6.57,21.21-6.57,0,0,1.07,12.96-6.61,20.41Z"/>
  </g>
</svg>