<?xml version="1.0" encoding="UTF-8" standalone="no"?>
<!-- Created with Inkscape (http://www.inkscape.org/) -->

<svg
   width="84.289154mm"
   height="26.956985mm"
   viewBox="0 0 84.289154 26.956985"
   version="1.1"
   id="svg4212"
   sodipodi:docname="logo_CBB.svg"
   xmlns:inkscape="http://www.inkscape.org/namespaces/inkscape"
   xmlns:sodipodi="http://sodipodi.sourceforge.net/DTD/sodipodi-0.dtd"
   xmlns="http://www.w3.org/2000/svg"
   xmlns:svg="http://www.w3.org/2000/svg">
  <sodipodi:namedview
     id="namedview4214"
     pagecolor="#ffffff"
     bordercolor="#000000"
     borderopacity="0.25"
     inkscape:showpageshadow="2"
     inkscape:pageopacity="0.0"
     inkscape:pagecheckerboard="0"
     inkscape:deskcolor="#d1d1d1"
     inkscape:document-units="mm"
     showgrid="false" />
  <defs
     id="defs4209" />
  <g
     inkscape:label="Layer 1"
     inkscape:groupmode="layer"
     id="layer1"
     transform="translate(-64.108156,-128.67535)">
    <g
       id="g144"
       transform="matrix(0.35277777,0,0,-0.35277777,137.13877,143.80388)">
      <path
         d="M 0,0 V 0 C 9.801,0 17.746,-7.945 17.746,-17.746 7.945,-17.746 0,-9.801 0,0 m -8.581,9.445 c -6.93,6.93 -6.93,18.166 0,25.096 6.93,-6.93 6.93,-18.166 0,-25.096 m 0,-34.541 c -6.93,6.93 -6.93,18.166 0,25.096 6.93,-6.93 6.93,-18.166 0,-25.096 m -8.581,34.541 c -9.801,0 -17.746,7.945 -17.746,17.746 9.801,0 17.746,-7.945 17.746,-17.746 z m 0,-9.445 c 0,-9.801 -7.945,-17.746 -17.746,-17.746 0,9.801 7.945,17.746 17.746,17.746 z m 34.908,27.191 v 0 C 17.746,17.39 9.801,9.445 0,9.445 0,19.246 7.945,27.191 17.746,27.191 M 26.389,0.439 c -1.701,1.446 -3.604,2.615 -5.706,3.505 -2.105,0.89 -4.23,1.557 -6.378,2.002 v 0.445 c 2.773,0.816 7.493,2.003 9.821,3.561 2.327,1.557 4.207,3.577 5.64,6.063 1.431,2.484 2.148,5.507 2.148,9.068 0,3.93 -1.141,7.212 -3.424,9.846 -2.283,2.632 -5.35,4.617 -9.197,5.952 -3.85,1.335 -10.225,2.003 -14.79,2.003 H -44.908 V -33.439 H 4.637 c 4.744,0 9.175,0.907 13.293,2.726 4.116,1.816 7.473,4.375 10.07,7.676 2.595,3.3 3.894,7.138 3.894,11.516 0,2.595 -0.493,4.876 -1.477,6.842 -0.986,1.965 -2.328,3.672 -4.028,5.118"
         style="fill:#8cc47b;fill-opacity:1;fill-rule:nonzero;stroke:none"
         id="path146" />
    </g>
    <g
       id="g148"
       transform="matrix(0.35277777,0,0,-0.35277777,108.23844,150.10428)">
      <path
         d="m 0,0 c -9.413,0 -17.044,7.313 -17.045,7.314 l -5.066,-4.145 -5.067,-4.145 c 2.371,5.272 2.371,11.307 0,16.58 l 5.067,-4.145 5.066,-4.145 c 0.001,0.001 7.632,7.313 17.045,7.313 9.413,0 17.045,-7.313 17.045,-7.313 C 17.045,7.314 9.413,0 0,0 m -27.178,46.14 5.067,-4.145 5.066,-4.145 c 0.001,10e-4 7.632,7.314 17.045,7.314 9.413,0 17.045,-7.314 17.045,-7.314 0,0 -7.632,-7.314 -17.045,-7.314 -9.413,0 -17.044,7.313 -17.045,7.314 l -5.066,-4.145 -5.067,-4.145 c 2.371,5.272 2.371,11.308 0,16.58 M 28.27,18.298 c -1.702,1.446 -3.604,2.615 -5.707,3.505 -2.104,0.89 -4.229,1.558 -6.377,2.003 v 0.445 c 2.773,0.815 7.492,2.002 9.821,3.56 2.327,1.557 4.207,3.578 5.639,6.064 1.431,2.484 2.149,5.507 2.149,9.067 0,3.93 -1.142,7.213 -3.424,9.846 -2.283,2.632 -5.892,4.618 -9.74,5.953 -3.85,1.335 -9.682,2.002 -14.247,2.002 H -43.027 V -15.58 H 6.518 c 4.744,0 9.175,0.908 13.293,2.726 4.116,1.817 7.473,4.376 10.07,7.677 2.595,3.299 3.894,7.138 3.894,11.515 0,2.596 -0.493,4.876 -1.477,6.842 -0.986,1.965 -2.329,3.672 -4.028,5.118"
         style="fill:#3ebbcc;fill-opacity:1;fill-rule:nonzero;stroke:none"
         id="path150" />
    </g>
    <g
       id="g152"
       transform="matrix(0.35277777,0,0,-0.35277777,86.199104,140.87776)">
      <path
         d="m 0,0 c -6.681,-6.479 -18.442,-5.712 -18.442,-5.712 0,0 -0.93,11.271 5.751,17.75 C -6.01,18.517 5.751,17.75 5.751,17.75 5.751,17.75 6.681,6.479 0,0 m 0.361,-27.886 c 0,0 -8.713,-0.258 -13.917,5.179 -5.204,5.437 -4.928,14.509 -4.928,14.509 0,0 8.713,0.258 13.917,-5.179 5.204,-5.436 4.928,-14.509 4.928,-14.509 m -21.887,22.174 c 0,0 -11.762,-0.767 -18.443,5.712 -6.68,6.479 -5.751,17.75 -5.751,17.75 0,0 11.761,0.767 18.442,-5.712 6.681,-6.479 5.752,-17.75 5.752,-17.75 m -4.887,-16.995 c -5.203,-5.437 -13.916,-5.179 -13.916,-5.179 0,0 -0.276,9.073 4.927,14.509 5.204,5.437 13.917,5.179 13.917,5.179 0,0 0.276,-9.072 -4.928,-14.509 m 40.564,57.282 -38.082,-0.006 c -0.164,0.002 -0.327,0.013 -0.493,0.013 -0.165,0 -0.328,-0.011 -0.493,-0.013 H -25.5 V 34.554 C -46.1,33.979 -62.623,17.11 -62.62,-3.627 c 0.003,-20.738 16.533,-37.602 37.132,-38.17 v -0.014 h 0.584 c 0.165,-0.002 0.328,-0.013 0.493,-0.013 0.165,0 0.328,0.011 0.493,0.013 l 38.082,0.006 z"
         style="fill:#f08957;fill-opacity:1;fill-rule:nonzero;stroke:none"
         id="path154" />
    </g>
  </g>
</svg>
